#!OML:ASF X:\für Bonn\!DataBase\2005_08_10_Bjorn_Final\c3d\bjorn.ASF
:FULLY-SPECIFIED
:DEGREES
31
root 0.735749 18.0948 2.11983 -173.408 -2.43107 179.766
lowerback 7.29659 1.16482 3.25252
upperback 7.61536 0.90715 -0.469292
thorax 3.89705 0.289935 -2.36371
lowerneck -14.0939 -9.2321 -1.46676
upperneck 1.60348 -12.456 3.85147
head 3.35183 -6.11817 0.585114
rclavicle 2.38542e-014 7.95139e-016
rhumerus 80.7872 -0.780757 -73.1294
rradius 9.37064
rwrist 47.1691
rhand -13.2544 9.03692
rfingers 7.12502
rthumb 12.8479 -20.5477
lclavicle 2.38542e-014 7.95139e-016
lhumerus 83.599 -7.10934 49.2464
lradius 14.6663
lwrist -31.0038
lhand -18.7382 -7.41568
lfingers 7.12502
lthumb 7.55785 22.4293
rfemur -31.1765 -8.45358 18.665
rtibia 54.55
rfoot -28.3204 7.75921
rtoes -21.948
lfemur -28.8076 6.70852 -17.4064
ltibia 56.7093
lfoot -24.3416 -4.35142
ltoes -29.2967
32
root 0.736335 17.965 2.16332 -173.553 -2.47014 179.869
lowerback 7.84834 1.14697 3.31054
upperback 7.75275 0.856804 -0.441922
thorax 3.73591 0.24717 -2.37259
lowerneck -14.2118 -9.2027 -1.40816
upperneck 1.34733 -12.4401 3.93068
head 3.28505 -6.11801 0.603309
rclavicle -1.14301e-014 1.96797e-014
rhumerus 81.0136 -0.949307 -73.053
rradius 9.3454
rwrist 47.4979
rhand -13.8637 9.07321
rfingers 7.12502
rthumb 12.2605 -20.5474
lclavicle -1.14301e-014 1.96797e-014
lhumerus 83.6678 -6.90659 49.0968
lradius 14.7932
lwrist -30.665
lhand -18.8628 -7.39741
lfingers 7.12502
lthumb 7.43758 22.4518
rfemur -32.2801 -8.40239 18.76
rtibia 56.5993
rfoot -28.9647 7.78967
rtoes -21.8484
lfemur -29.9906 6.84925 -17.2815
ltibia 58.9249
lfoot -24.6062 -4.5504
ltoes -28.6828
33
root 0.736698 17.8286 2.20618 -173.708 -2.49453 180.008
lowerback 8.40427 1.13657 3.39146
upperback 7.89094 0.816073 -0.391047
thorax 3.57533 0.208797 -2.36973
lowerneck -14.3047 -9.1664 -1.37105
upperneck 1.0334 -12.4137 4.02322
head 3.19575 -6.11544 0.632905
rclavicle 4.87022e-015 3.97569e-015
rhumerus 81.2188 -1.13616 -72.9507
rradius 9.38855
rwrist 47.8526
rhand -14.2576 9.09591
rfingers 7.12502
rthumb 11.8807 -20.547
lclavicle 4.87022e-015 3.97569e-015
lhumerus 83.7063 -6.70225 48.9802
lradius 14.9301
lwrist -30.4201
lhand -18.924 -7.42708
lfingers 7.12502
lthumb 7.37847 22.4243
rfemur -33.4091 -8.36637 18.8939
rtibia 58.7077
rfoot -29.5934 7.81897
rtoes -21.8831
lfemur -31.2289 7.00624 -17.1202
ltibia 61.2426
lfoot -24.8329 -4.74449
ltoes -27.9161
34
root 0.736845 17.6845 2.24964 -173.78 -2.54268 180.054
lowerback 8.87431 1.12456 3.41521
upperback 8.00794 0.776274 -0.400126
thorax 3.43991 0.172956 -2.39566
lowerneck -14.3812 -9.13336 -1.27151
upperneck 0.719122 -12.4033 4.12714
head 3.10011 -6.12068 0.655568
rclavicle -1.18277e-014 8.34896e-015
rhumerus 81.4329 -1.36091 -72.8957
rradius 9.39873
rwrist 48.218
rhand -14.4861 9.12457
rfingers 7.12502
rthumb 11.6604 -20.531
lclavicle -1.18277e-014 8.34896e-015
lhumerus 83.7475 -6.54022 48.8974
lradius 15.0733
lwrist -30.2786
lhand -18.8728 -7.47606
lfingers 7.12502
lthumb 7.42795 22.3735
rfemur -34.6862 -8.38636 18.9348
rtibia 60.8903
rfoot -30.1388 7.83191
rtoes -21.944
lfemur -32.6239 7.12951 -17.0771
ltibia 63.6578
lfoot -25.0034 -5.05245
ltoes -26.7702
35
root 0.737207 17.5324 2.29363 -173.818 -2.60307 180.078
lowerback 9.29052 1.10173 3.38962
upperback 8.13721 0.715473 -0.385187
thorax 3.34451 0.123979 -2.36677
lowerneck -14.4179 -9.08393 -1.27894
upperneck 0.320865 -12.36 4.31791
head 2.98204 -6.11162 0.729746
rclavicle 1.78906e-015 -1.35174e-014
rhumerus 81.7074 -1.55178 -72.8132
rradius 9.43564
rwrist 48.6106
rhand -14.5391 9.13705
rfingers 7.12502
rthumb 11.6092 -20.5214
lclavicle 1.78906e-015 -1.35174e-014
lhumerus 83.7923 -6.31827 48.7937
lradius 15.1769
lwrist -30.2629
lhand -18.7484 -7.53871
lfingers 7.12502
lthumb 7.54797 22.3066
rfemur -36.0447 -8.4493 18.9597
rtibia 63.1441
rfoot -30.6564 7.89352
rtoes -21.9727
lfemur -34.1293 7.25753 -17.0658
ltibia 66.1739
lfoot -25.1738 -5.24692
ltoes -25.9828
36
root 0.737839 17.3726 2.33748 -173.853 -2.65064 180.088
lowerback 9.71574 1.08276 3.32763
upperback 8.23142 0.663448 -0.361278
thorax 3.2069 0.0784817 -2.30794
lowerneck -14.314 -9.02425 -1.28424
upperneck -0.123394 -12.2985 4.47295
head 2.81899 -6.09764 0.801693
rclavicle -6.75868e-015 4.77083e-015
rhumerus 81.8956 -1.72437 -72.7122
rradius 9.54142
rwrist 48.9421
rhand -14.4043 9.17636
rfingers 7.12502
rthumb 11.7393 -20.4747
lclavicle -6.75868e-015 4.77083e-015
lhumerus 83.7433 -6.13175 48.7098
lradius 15.3142
lwrist -30.4274
lhand -18.6114 -7.50738
lfingers 7.12502
lthumb 7.68019 22.3332
rfemur -37.454 -8.48917 18.9595
rtibia 65.4746
rfoot -31.1565 8.01887
rtoes -22.0743
lfemur -35.6946 7.40363 -17.0777
ltibia 68.7819
lfoot -25.3433 -5.26685
ltoes -25.8492
37
root 0.73831 17.2041 2.38223 -173.917 -2.73971 180.097
lowerback 10.1435 1.06646 3.31279
upperback 8.36216 0.610249 -0.36285
thorax 3.10945 0.0334715 -2.30166
lowerneck -14.2021 -8.98418 -1.27166
upperneck -0.625209 -12.2713 4.6989
head 2.64069 -6.10213 0.891948
rclavicle 5.56597e-015 -4.96962e-015
rhumerus 82.1273 -1.94816 -72.6407
rradius 9.63673
rwrist 49.2789
rhand -14.133 9.23483
rfingers 7.12502
rthumb 12.0009 -20.4011
lclavicle 5.56597e-015 -4.96962e-015
lhumerus 83.7475 -5.97209 48.8209
lradius 15.447
lwrist -30.9618
lhand -18.4413 -7.49147
lfingers 7.12502
lthumb 7.84437 22.343
rfemur -38.8809 -8.58526 18.9554
rtibia 67.8735
rfoot -31.6393 8.04728
rtoes -22.5042
lfemur -37.2889 7.50341 -17.0735
ltibia 71.465
lfoot -25.5194 -5.26804
ltoes -26.1011
38
root 0.737538 17.0257 2.42645 -174.053 -2.847 180.155
lowerback 10.6248 1.03431 3.33783
upperback 8.5277 0.528607 -0.325127
thorax 3.01973 -0.029008 -2.27474
lowerneck -14.0939 -8.925 -1.25736
upperneck -1.15953 -12.2175 4.85035
head 2.44628 -6.09889 0.960758
rclavicle 2.14687e-014 -5.36719e-015
rhumerus 82.3911 -2.16802 -72.5418
rradius 9.7273
rwrist 49.1156
rhand -13.836 9.40357
rfingers 7.12502
rthumb 12.2872 -20.2154
lclavicle 2.14687e-014 -5.36719e-015
lhumerus 83.6642 -5.76087 49.0641
lradius 15.6549
lwrist -31.8021
lhand -18.2894 -7.42445
lfingers 7.12502
lthumb 7.99102 22.4045
rfemur -40.268 -8.72482 18.9876
rtibia 70.3357
rfoot -32.0911 8.1596
rtoes -22.9689
lfemur -38.8415 7.60224 -17.0016
ltibia 74.2058
lfoot -25.601 -5.31728
ltoes -26.3585
39
root 0.737286 16.8412 2.46987 -174.21 -2.98917 180.228
lowerback 11.1633 0.996095 3.41314
upperback 8.6796 0.445058 -0.306168
thorax 2.88714 -0.090748 -2.29467
lowerneck -14.0383 -8.87033 -1.10748
upperneck -1.66174 -12.1885 4.8811
head 2.25504 -6.11166 0.964619
rclavicle 3.08116e-015 -9.64106e-015
rhumerus 82.6308 -2.3865 -72.4751
rradius 9.78917
rwrist 48.6035
rhand -13.5396 9.59083
rfingers 7.12502
rthumb 12.573 -20.0108
lclavicle 3.08116e-015 -9.64106e-015
lhumerus 83.7656 -5.53422 48.9269
lradius 15.6986
lwrist -32.3472
lhand -18.2598 -7.34448
lfingers 7.12502
lthumb 8.01958 22.4834
rfemur -41.6731 -8.88279 19.0298
rtibia 72.8618
rfoot -32.5414 8.25268
rtoes -23.7452
lfemur -40.3941 7.66825 -16.8855
ltibia 76.9637
lfoot -25.538 -5.5014
ltoes -26.7791
40
root 0.736153 16.6507 2.51228 -174.389 -3.10974 180.302
lowerback 11.7276 0.961856 3.4688
upperback 8.83974 0.36166 -0.259002
thorax 2.74992 -0.156154 -2.27323
lowerneck -13.9957 -8.8212 -1.00019
upperneck -2.1416 -12.16 4.87469
head 2.07507 -6.12546 0.962589
rclavicle 2.05742e-014 8.94531e-015
rhumerus 82.9272 -2.59897 -72.3689
rradius 9.7749
rwrist 48.442
rhand -13.3886 9.84121
rfingers 7.12502
rthumb 12.7186 -19.7515
lclavicle 2.05742e-014 8.94531e-015
lhumerus 83.9862 -5.235 48.3819
lradius 15.6221
lwrist -32.4112
lhand -18.3664 -7.20927
lfingers 7.12502
lthumb 7.91675 22.6225
rfemur -43.0871 -9.02925 19.054
rtibia 75.4349
rfoot -32.8482 8.30311
rtoes -24.8029
lfemur -41.9232 7.74001 -16.757
ltibia 79.7128
lfoot -25.4549 -5.7168
ltoes -27.1738
41
root 0.73438 16.4541 2.5531 -174.571 -3.23628 180.354
lowerback 12.2961 0.93091 3.51877
upperback 8.99261 0.283359 -0.21911
thorax 2.60449 -0.219265 -2.25541
lowerneck -13.9561 -8.78436 -0.895301
upperneck -2.5883 -12.1472 4.85387
head 1.90738 -6.14633 0.954557
rclavicle 1.21259e-014 -1.09332e-014
rhumerus 83.2098 -2.80161 -72.2594
rradius 9.67886
rwrist 48.713
rhand -13.5283 9.98134
rfingers 7.12502
rthumb 12.5839 -19.6197
lclavicle 1.21259e-014 -1.09332e-014
lhumerus 84.1709 -4.96904 47.8261
lradius 15.5556
lwrist -32.4611
lhand -18.5315 -7.04594
lfingers 7.12502
lthumb 7.75732 22.7918
rfemur -44.5281 -9.22444 19.0407
rtibia 78.0398
rfoot -32.9763 8.46464
rtoes -25.8439
lfemur -43.4585 7.80427 -16.6461
ltibia 82.4329
lfoot -25.442 -6.02044
ltoes -27.5314
42
root 0.732073 16.2552 2.59136 -174.803 -3.35514 180.425
lowerback 12.9001 0.907182 3.62118
upperback 9.15618 0.216326 -0.203463
thorax 2.45546 -0.275747 -2.29259
lowerneck -13.9632 -8.74646 -0.750064
upperneck -2.96628 -12.1402 4.85298
head 1.77074 -6.16677 0.942048
rclavicle -1.07344e-014 1.27222e-014
rhumerus 83.4102 -3.05128 -72.1818
rradius 9.69869
rwrist 48.9752
rhand -13.608 10.1906
rfingers 7.12502
rthumb 12.5071 -19.4151
lclavicle -1.07344e-014 1.27222e-014
lhumerus 84.3754 -4.75072 47.1366
lradius 15.488
lwrist -32.3638
lhand -18.7205 -6.89548
lfingers 7.12502
lthumb 7.57489 22.9489
rfemur -45.8941 -9.40829 19.0214
rtibia 80.6279
rfoot -33.1506 8.61311
rtoes -26.9131
lfemur -44.9193 7.88665 -16.4893
ltibia 85.0954
lfoot -25.5072 -6.35122
ltoes -27.8269
43
root 0.730451 16.0477 2.62804 -175.03 -3.48206 180.423
lowerback 13.4966 0.880665 3.61478
upperback 9.31044 0.136393 -0.173737
thorax 2.29843 -0.344053 -2.2513
lowerneck -13.9669 -8.71929 -0.760547
upperneck -3.29408 -12.1239 4.95734
head 1.66947 -6.17637 0.986052
rclavicle 6.26172e-015 3.8763e-015
rhumerus 83.5783 -3.24911 -72.0694
rradius 9.77916
rwrist 49.2045
rhand -13.6827 10.3509
rfingers 7.12502
rthumb 12.435 -19.2592
lclavicle 6.26172e-015 3.8763e-015
lhumerus 84.5115 -4.52067 46.5436
lradius 15.4139
lwrist -32.32
lhand -18.884 -6.82188
lfingers 7.12502
lthumb 7.41717 23.0281
rfemur -47.2574 -9.63361 18.9091
rtibia 83.2116
rfoot -33.3686 8.85581
rtoes -27.8984
lfemur -46.3683 7.9581 -16.3978
ltibia 87.7237
lfoot -25.5263 -6.78057
ltoes -28.1191
44
root 0.727974 15.8335 2.66372 -175.31 -3.60292 180.371
lowerback 14.1253 0.870601 3.58618
upperback 9.49802 0.0658834 -0.163787
thorax 2.16241 -0.411551 -2.21844
lowerneck -14.0547 -8.71291 -0.742985
upperneck -3.54713 -12.1395 5.02257
head 1.60382 -6.19971 1.00537
rclavicle 5.76476e-015 -7.95139e-016
rhumerus 83.7556 -3.45839 -71.9586
rradius 9.86645
rwrist 49.3975
rhand -13.7795 10.5443
rfingers 7.12502
rthumb 12.3417 -19.0714
lclavicle 5.76476e-015 -7.95139e-016
lhumerus 84.662 -4.30314 46.1579
lradius 15.3524
lwrist -32.5335
lhand -18.9841 -6.79956
lfingers 7.12502
lthumb 7.32054 23.0538
rfemur -48.562 -9.89575 18.6903
rtibia 85.7932
rfoot -33.5594 9.24335
rtoes -28.6947
lfemur -47.6841 8.0181 -16.3468
ltibia 90.2923
lfoot -25.5862 -7.23369
ltoes -28.4737
45
root 0.72527 15.6085 2.69756 -175.615 -3.71781 180.287
lowerback 14.7691 0.861486 3.52763
upperback 9.68516 -0.00922219 -0.166988
thorax 2.01925 -0.483522 -2.18079
lowerneck -14.1003 -8.68961 -0.721479
upperneck -3.80917 -12.1321 5.09408
head 1.52768 -6.21194 1.02979
rclavicle -5.76476e-015 4.07509e-015
rhumerus 83.8745 -3.65512 -71.8589
rradius 10.006
rwrist 49.4522
rhand -13.8846 10.6872
rfingers 7.12502
rthumb 12.2404 -18.9346
lclavicle -5.76476e-015 4.07509e-015
lhumerus 84.7594 -4.09569 45.8002
lradius 15.3159
lwrist -32.7726
lhand -19.0811 -6.79619
lfingers 7.12502
lthumb 7.22684 23.0604
rfemur -49.8455 -10.1682 18.3947
rtibia 88.3919
rfoot -33.7017 9.81971
rtoes -29.2111
lfemur -48.9424 8.10885 -16.3138
ltibia 92.8505
lfoot -25.6997 -7.6545
ltoes -29.1342
